<svg width="19" height="22" viewBox="0 0 19 22" fill="none" xmlns="http://www.w3.org/2000/svg">
<path d="M15.3662 11.5576C15.3564 9.76563 16.167 8.41309 17.8076 7.41699C16.8896 6.10352 15.5029 5.38086 13.6719 5.23926C11.9385 5.10254 10.0439 6.25 9.35059 6.25C8.61816 6.25 6.93848 5.28809 5.62012 5.28809C2.89551 5.33203 0 7.46094 0 11.792C0 13.0713 0.234375 14.3929 0.703125 15.7568C1.32812 17.5488 3.58398 21.9434 5.9375 21.8701C7.16797 21.8408 8.03711 20.9961 9.63867 20.9961C11.1914 20.9961 11.9971 21.8701 13.3691 21.8701C15.7422 21.8359 17.7832 17.8418 18.3789 16.0449C15.1953 14.5459 15.3662 11.6504 15.3662 11.5576ZM12.6025 3.54004C13.9355 1.95801 13.8135 0.517578 13.7744 0C12.5977 0.0683594 11.2354 0.800781 10.459 1.7041C9.60449 2.6709 9.10156 3.86719 9.20898 5.21484C10.4834 5.3125 11.6455 4.6582 12.6025 3.54004Z" fill="black"/>
</svg>
